<?xml version="1.0" encoding="UTF-8"?>
<svg version="1.1" xmlns="http://www.w3.org/2000/svg" width="301" height="190">
<path d="M0 0 C13.48301778 -0.06969397 26.96599227 -0.12290962 40.4491539 -0.15543652 C46.71079651 -0.17105248 52.97231533 -0.19221628 59.23388672 -0.22631836 C65.28339088 -0.25905704 71.33277641 -0.27688359 77.38236237 -0.28463173 C79.68348303 -0.29014925 81.98459764 -0.30092326 84.28566742 -0.31719017 C104.58612167 -0.45491464 119.11702898 0.83785319 134.48046875 15.3203125 C138.13087638 19.20276154 140.71115338 23.20432137 143 28 C143.33773437 28.6703125 143.67546875 29.340625 144.0234375 30.03125 C147.63845718 38.65423272 147.57960414 50.81336521 144.4375 59.5625 C139.34746139 70.08191312 130.00155723 76.58248984 120 82 C120.68964844 82.21914062 121.37929688 82.43828125 122.08984375 82.6640625 C135.29193597 87.1190895 145.50215738 94.38197317 151.875 107 C158.83168155 121.23692969 159.29181977 137.97007288 154.25390625 152.9609375 C148.21854174 167.5887057 136.56640915 180.17955304 121.875 186.375 C113.70044248 189.48773187 105.75097478 190.29094972 97.06420898 190.22705078 C95.48215919 190.22748886 95.48215919 190.22748886 93.8681488 190.22793579 C90.41071101 190.22655166 86.95349352 190.2110337 83.49609375 190.1953125 C81.08757139 190.19157911 78.6790475 190.18873368 76.27052307 190.18673706 C69.95274613 190.17912628 63.63506216 190.15949977 57.31732178 190.1373291 C50.86195127 190.11681555 44.40656563 190.10772358 37.95117188 190.09765625 C25.30074175 190.07625143 12.65037584 190.04253467 0 190 C0 189.34 0 188.68 0 188 C0.9075 187.319375 1.815 186.63875 2.75 185.9375 C7.65294782 182.04295989 9.76499561 176.00624936 11 170 C11.0972707 167.96787587 11.1391814 165.93285735 11.14717102 163.89842224 C11.15432632 162.64669724 11.16148163 161.39497223 11.16885376 160.10531616 C11.17169387 158.72052027 11.17440562 157.33572411 11.17700195 155.95092773 C11.18326962 154.49037007 11.18991669 153.02981399 11.19691467 151.56925964 C11.21792769 146.77404891 11.22831695 141.97883797 11.23828125 137.18359375 C11.24233034 135.52956692 11.24644731 133.87554025 11.25063133 132.22151375 C11.26967978 124.44686613 11.28390952 116.67222796 11.2922433 108.89756149 C11.30200392 99.9408696 11.32829405 90.98442561 11.36874419 82.027821 C11.39897614 75.09429041 11.41371901 68.16083057 11.41702431 61.22723538 C11.41936743 57.09143092 11.42823052 52.95589139 11.45348549 48.820158 C11.47689452 44.92371962 11.48094849 41.02771817 11.47072411 37.13122749 C11.47023167 35.70871648 11.47646488 34.28618302 11.49028015 32.86373901 C11.58161162 22.89437785 10.60774645 14.35695686 4.9375 5.9375 C2.95505672 3.82839838 2.95505672 3.82839838 0 2 C0 1.34 0 0.68 0 0 Z M66 29 C66 43.19 66 57.38 66 72 C73.33059296 74.19285577 73.33059296 74.19285577 79.7890625 72.234375 C85.23556043 69.19357404 88.7387582 64.39286222 90.9375 58.625 C93.11664829 50.68472841 92.59853173 43.73809349 89.28125 36.203125 C87.01529781 32.30679258 84.03447445 30.01723723 80 28 C78.18958207 27.90367103 76.37547247 27.87018467 74.5625 27.875 C73.59441406 27.87242188 72.62632812 27.86984375 71.62890625 27.8671875 C68.88982171 27.88786027 68.88982171 27.88786027 66 29 Z M66 99 C66 118.8 66 138.6 66 159 C73.4368369 162.71841845 79.78089566 163.54217037 87.85546875 161.15625 C94.82161566 158.03676515 98.72022382 153.67224091 102.02734375 146.89453125 C105.52238051 137.53685218 106.04218586 123.19113473 102.09375 113.88671875 C97.64339029 106.20984825 92.52223016 102.39731027 84 100 C77.82450613 98.65261952 72.55856111 99 66 99 Z " fill="#2C2C2F" transform="translate(144,0)"/>
<path d="M0 0 C12.07555117 -0.06994052 24.15105305 -0.12303277 36.22676659 -0.15543652 C41.83582155 -0.17099959 47.44473651 -0.19206398 53.05371094 -0.22631836 C58.480794 -0.25924922 63.9077436 -0.27692309 69.33491898 -0.28463173 C71.39104942 -0.29011538 73.44717372 -0.3008207 75.50324631 -0.31719017 C108.65910595 -0.57032682 108.65910595 -0.57032682 121.5 6.5625 C122.14960693 6.90909668 122.79921387 7.25569336 123.46850586 7.61279297 C135.98059066 14.62975791 143.04691299 25.29841549 147.1640625 38.82421875 C150.50013863 53.26436532 148.39207912 68.65335037 141.0625 81.4375 C131.13294027 96.71374574 116.3867626 103.91841246 99 108 C92.20990375 109.29049343 85.45447078 109.11137923 78.5625 109.0625 C77.35400391 109.05798828 76.14550781 109.05347656 74.90039062 109.04882812 C71.93354211 109.03710145 68.9667973 109.02068896 66 109 C66.03834677 116.20765593 66.09811991 123.41481644 66.18390274 130.62207317 C66.22310888 133.9702257 66.25332656 137.31788396 66.27099609 140.66625977 C66.29261158 144.53182989 66.33935918 148.39644128 66.390625 152.26171875 C66.39185364 153.44142746 66.39308228 154.62113617 66.39434814 155.83659363 C66.59483438 167.42941817 68.80898532 177.46017456 76.609375 186.29296875 C78 188 78 188 78 190 C52.26 190 26.52 190 0 190 C0 189.34 0 188.68 0 188 C1.05424102 187.15009222 2.14478435 186.34497411 3.25 185.5625 C8.78066434 180.89369104 10.60905251 174.66659864 11.36288261 167.59661484 C11.51108362 163.70806788 11.53029162 159.83103643 11.50170898 155.94091797 C11.50550033 154.45637502 11.51100704 152.97183562 11.51808167 151.48730469 C11.53194508 147.48732636 11.52093244 143.48778255 11.50437045 139.48782873 C11.49043309 135.2853503 11.49698966 131.08289487 11.50050354 126.88040161 C11.50319824 119.82791205 11.48979195 112.77559341 11.46655273 105.72314453 C11.43992698 97.58701129 11.43820522 89.45116327 11.4499411 81.31500137 C11.46074425 73.46237621 11.45451327 65.60985352 11.44038582 57.75723648 C11.43465007 54.42651044 11.43468956 51.09585998 11.43945122 47.7651329 C11.44424651 43.83988617 11.43401458 39.91494924 11.41249657 35.98976135 C11.40696386 34.5551419 11.40643082 33.12049246 11.41144943 31.68587112 C11.49709489 17.81102655 11.49709489 17.81102655 4.9375 6 C4.43089844 5.443125 3.92429688 4.88625 3.40234375 4.3125 C2.01423123 2.88850034 2.01423123 2.88850034 0 2 C0 1.34 0 0.68 0 0 Z M66 29 C66 55.07 66 81.14 66 108 C78.67826857 101.66086572 86.55494441 95.708543 92.03125 82.515625 C96.02430651 70.31461901 95.51057672 55.29306764 89.8984375 43.73046875 C85.86711886 36.72117602 80.69824609 32.70113898 73 30 C70.69 29.67 68.38 29.34 66 29 Z " fill="#2C2C2F" transform="translate(0,0)"/>
<path d="M0 0 C3.8359375 1.734375 3.8359375 1.734375 5.3125 4.125 C6.39380223 8.64680931 6.23110909 12.71506154 4.0234375 16.8125 C1.82389478 19.76414443 0.24966137 20.93405171 -3.3125 21.875 C-4.199375 21.91625 -5.08625 21.9575 -6 22 C-5.360625 22.9075 -4.72125 23.815 -4.0625 24.75 C-0.75458181 29.96247715 -0.3156902 34.91941865 -1 41 C-3.14584118 48.62678491 -7.77113318 55.33713542 -14.5 59.57421875 C-22.0110151 63.47502868 -28.39368249 64.20055433 -36.75 64.25 C-37.6059375 64.270625 -38.461875 64.29125 -39.34375 64.3125 C-48.18232375 64.36606711 -56.47299401 62.2557538 -63 56 C-66.53927023 51.60011695 -68.27924592 46.66310717 -68 41 C-66.39389739 35.73555254 -64.07623015 32.6471533 -60 29 C-59.67 28.67 -59.34 28.34 -59 28 C-59.804375 27.319375 -60.60875 26.63875 -61.4375 25.9375 C-64.52260811 22.40091265 -65 20.65985959 -65 16 C-63.40980479 10.78769347 -61.52824572 8.01883048 -57 5 C-52.58075075 2.79037538 -46.81031783 3.58400418 -42 4 C-37.09032803 6.23949949 -34.52751217 9.24827712 -32 14 C-32.33 14.99 -32.66 15.98 -33 17 C-33.78375 16.360625 -34.5675 15.72125 -35.375 15.0625 C-38.68217164 12.464008 -40.31230888 11.83128455 -44.4375 11.75 C-45.61119141 11.71132812 -45.61119141 11.71132812 -46.80859375 11.671875 C-49.51738351 12.07746919 -50.3216094 12.88533049 -52 15 C-53.20272819 17.40545638 -53.10071472 18.94996953 -53.0625 21.625 C-53.04896484 22.85089844 -53.04896484 22.85089844 -53.03515625 24.1015625 C-53.02355469 24.72804687 -53.01195313 25.35453125 -53 26 C-52.01 25.67 -51.02 25.34 -50 25 C-47.625 24.76171875 -47.625 24.76171875 -45 24.6875 C-43.700625 24.63142578 -43.700625 24.63142578 -42.375 24.57421875 C-40 25 -40 25 -38.140625 26.8515625 C-37 29 -37 29 -37.75 31.6875 C-39 34 -39 34 -40 35 C-45.62498715 35.44999897 -49.06143138 34.41889075 -54 32 C-56.10268161 35.15402242 -56.54845598 37.10552527 -56.4375 40.87109375 C-55.60194438 44.93696707 -53.15483172 47.4422117 -50 50 C-42.13797503 54.86696784 -31.29003615 54.78313213 -22.5625 52.875 C-16.00932733 50.95573307 -12.52064491 48.73716084 -9.125 42.625 C-7.51040172 37.42240553 -7.31696001 33.81005598 -9.25 28.6875 C-11.10548296 25.83800831 -11.77013409 24.89718497 -15 24 C-18.31340543 23.76332818 -21.14048835 23.79643145 -24.375 24.5625 C-26.32743782 26.03593631 -26.32743782 26.03593631 -27 29.3125 C-27.31620052 33.01965088 -27.31620052 33.01965088 -25.3125 35.8125 C-23.23523756 37.77747799 -21.63912162 38.96320222 -19 40 C-19 40.66 -19 41.32 -19 42 C-25.15423406 41.63074596 -27.72703501 40.17122773 -32 36 C-33.97241167 32.05517665 -33.44186332 27.30038811 -33 23 C-30.3566106 18.1198965 -26.42354141 16.13863319 -21.25 14.41796875 C-16.98938072 13.62649954 -12.62791539 14.04587088 -8.3125 14.16015625 C-5.1747585 14.00844941 -3.55308113 13.76138049 -1 12 C0.26237731 9.47524538 0.09856404 7.68799534 0.0625 4.875 C0.05347656 3.96492187 0.04445313 3.05484375 0.03515625 2.1171875 C0.02355469 1.41851562 0.01195312 0.71984375 0 0 Z " fill="#2C2C2F" transform="translate(144,126)"/>
</svg>
