<!--?xml version="1.0" standalone="no"?-->
              <svg id="sw-js-blob-svg" viewBox="0 0 100 100" xmlns="http://www.w3.org/2000/svg" version="1.1">
                    <defs> 
                        <linearGradient id="sw-gradient" x1="0" x2="1" y1="1" y2="0">
                            <stop id="stop1" stop-color="rgba(0, 249.433, 46.63, 1)" offset="0%"></stop>
                            <stop id="stop2" stop-color="rgba(211.491, 0, 255, 1)" offset="100%"></stop>
                        </linearGradient>
                    </defs>
                <path fill="none" d="M15.3,-27.9C21.2,-23.2,28.3,-21.8,32.9,-17.7C37.5,-13.6,39.7,-6.8,39.9,0.2C40.2,7.1,38.5,14.2,34.4,19.1C30.3,24,23.6,26.8,17.5,31.3C11.4,35.8,5.7,42.2,-0.7,43.5C-7.1,44.7,-14.3,40.9,-18.1,35C-21.9,29.1,-22.4,21.2,-26.1,15C-29.8,8.8,-36.8,4.4,-37.3,-0.3C-37.9,-5,-32,-10.1,-27,-14C-21.9,-17.9,-17.8,-20.7,-13.4,-26.3C-9.1,-31.9,-4.5,-40.3,0.1,-40.5C4.7,-40.7,9.5,-32.6,15.3,-27.9Z" width="100%" height="100%" transform="translate(50 50)" stroke-width="1" style="transition: 0.3s;" stroke="url(#sw-gradient)"></path>
              </svg>